<svg xmlns="http://www.w3.org/2000/svg" width="2425.661" height="1021.764" viewBox="0 0 2425.661 1021.764">
  <g id="Group_16519" data-name="Group 16519" transform="translate(16007.999 14594)">
    <path id="Path_22066" data-name="Path 22066" d="M211.885-29.931h103.49l-87.569,459.11H89.156L.26-29.931h101.5q38.477,219.287,44.448,265t13.268,107.987q12.6-118.587,21.892-177.549ZM520.366,87.331q0-33.125-39.472-33.125T441.421,87.331V311.917q0,33.125,39.472,33.125t39.472-33.125Zm-178.455-5.3q0-54.325,35.16-86.456t103.49-32.131q68.33,0,103.822,32.131t35.492,86.456V317.217q0,54.325-35.492,86.456T480.562,435.8q-68.33,0-103.49-32.131t-35.16-86.456ZM842.778-29.931H950.249L851.4,200.618l98.847,228.561H842.115L799.657,303.967,754.546,429.179H646.412l98.183-228.561L646.412-29.931h107.47L799.657,96.606Zm140.641,0h100.837v459.11H983.419Zm160.543,0h232.853V56.194H1243.472v97.387H1358.9v86.125H1243.472v103.35h133.343v86.125H1143.962ZM1406.668,77.393q0-53,35.824-81.818T1545.65-33.244q67.335,0,100.505,13.912v95.4q-40.468-17.225-92.213-17.225-26.536,0-35.824,8.281t-9.288,23.519v9.937q0,18.55,6.3,27.494t27.531,20.206l75.628,42.4q54.4,29.812,54.4,89.437v41.075q0,53.662-39.8,82.481T1521.1,432.492q-71.979,0-108.466-15.237V321.192Q1457.75,340.4,1514.8,340.4t57.052-32.462V298q0-15.237-6.3-22.856T1542,258.255l-70.984-38.425q-64.35-35.775-64.35-100.7Z" transform="translate(-15255.027 -14161.669)" fill="#1274ff"/>
    <path id="Subtraction_2" data-name="Subtraction 2" d="M76.6,812.659V671.478l.046.742L153.2,523.867,132.916,103.636c16.291,5.765,32.614,12.1,48.518,18.815s31.8,14,47.277,21.654,30.922,15.873,45.913,24.433,29.953,17.7,44.425,27.153L378,234.2l3.838,56C382.895,305.575,383,348.71,383,349.13a494.166,494.166,0,0,1-17.415,130.007,494.18,494.18,0,0,1-51.011,120.842A504.372,504.372,0,0,1,236.181,700.71,504.371,504.371,0,0,1,135,778.521L76.6,812.659Z" transform="translate(-15778.207 -14385.326)" fill="#0028ba" stroke="rgba(0,0,0,0)" stroke-miterlimit="10" stroke-width="1"/>
    <path id="Subtraction_3" data-name="Subtraction 3" d="M306.4,812.663,248,778.526A503.983,503.983,0,0,1,68.436,599.989,493.925,493.925,0,0,1,0,349.135c0-.42.123-43.751,1.16-58.922l3.83-56L63.95,195.7c14.47-9.449,29.416-18.585,44.422-27.154,14.991-8.56,30.438-16.781,45.911-24.433s31.378-14.937,47.276-21.653,32.232-13.051,48.516-18.813L229.792,523.868,306.347,672.22v-1.461l.053.865V812.661h0v0Z" transform="translate(-16007.999 -14385.326)" fill="#0074ff"/>
    <path id="Path_22064" data-name="Path 22064" d="M1725.713,4814.113c25.873.02,46.82,20.453,46.8,45.6a45.1,45.1,0,0,1-18.687,36.379l15.85,112.1a925.34,925.34,0,0,1,160.084,70.047l-18.9,29.5a900.25,900.25,0,0,0-156.26-67.153l-29.1-9.34v-4.52h-.012V4814.113Z" transform="translate(-17428.098 -19408.113)" fill="#edb726"/>
    <path id="Path_22065" data-name="Path 22065" d="M1857.5,5008.2l16.125-112.148a45.083,45.083,0,0,1-18.619-36.406c.021-25.1,20.9-45.437,46.668-45.53v179.844l.012-.02v37.313l-29.1,9.34a900.074,900.074,0,0,0-156.258,67.155l-18.912-29.512A926.27,926.27,0,0,1,1857.5,5008.2Z" transform="translate(-17603.289 -19408.113)" fill="#f5c600"/>
  </g>
</svg>
